<?xml version="1.0" encoding="UTF-8" standalone="no"?>
<!DOCTYPE svg PUBLIC "-//W3C//DTD SVG 1.1//EN"
 "http://www.w3.org/Graphics/SVG/1.1/DTD/svg11.dtd">
<!-- Generated by graphviz version 5.0.0 (20220707.1540)
 -->
<!-- Pages: 1 -->
<svg width="1618pt" height="116pt"
 viewBox="0.00 0.00 1618.49 116.00" xmlns="http://www.w3.org/2000/svg" xmlns:xlink="http://www.w3.org/1999/xlink">
<g id="graph0" class="graph" transform="scale(1 1) rotate(0) translate(4 112)">
<polygon fill="white" stroke="transparent" points="-4,4 -4,-112 1614.49,-112 1614.49,4 -4,4"/>
<!-- pod1&#45;spine1 -->
<g id="node1" class="node">
<title>pod1&#45;spine1</title>
<ellipse fill="none" stroke="black" cx="272.75" cy="-90" rx="53.89" ry="18"/>
<text text-anchor="middle" x="272.75" y="-86.3" font-family="Times,serif" font-size="14.00">pod1&#45;spine1</text>
</g>
<!-- pod1&#45;leaf1 -->
<g id="node3" class="node">
<title>pod1&#45;leaf1</title>
<ellipse fill="none" stroke="black" cx="393.75" cy="-18" rx="48.99" ry="18"/>
<text text-anchor="middle" x="393.75" y="-14.3" font-family="Times,serif" font-size="14.00">pod1&#45;leaf1</text>
</g>
<!-- pod1&#45;spine1&#45;&#45;pod1&#45;leaf1 -->
<g id="edge1" class="edge">
<title>pod1&#45;spine1&#45;&#45;pod1&#45;leaf1</title>
<path fill="none" stroke="black" d="M298.41,-74.15C319.08,-62.2 347.98,-45.47 368.54,-33.58"/>
</g>
<!-- pod1&#45;leaf2 -->
<g id="node4" class="node">
<title>pod1&#45;leaf2</title>
<ellipse fill="none" stroke="black" cx="48.75" cy="-18" rx="48.99" ry="18"/>
<text text-anchor="middle" x="48.75" y="-14.3" font-family="Times,serif" font-size="14.00">pod1&#45;leaf2</text>
</g>
<!-- pod1&#45;spine1&#45;&#45;pod1&#45;leaf2 -->
<g id="edge2" class="edge">
<title>pod1&#45;spine1&#45;&#45;pod1&#45;leaf2</title>
<path fill="none" stroke="black" d="M234.75,-77.13C192.81,-64.02 125.81,-43.08 84.7,-30.24"/>
</g>
<!-- pod1&#45;leaf3 -->
<g id="node5" class="node">
<title>pod1&#45;leaf3</title>
<ellipse fill="none" stroke="black" cx="163.75" cy="-18" rx="48.99" ry="18"/>
<text text-anchor="middle" x="163.75" y="-14.3" font-family="Times,serif" font-size="14.00">pod1&#45;leaf3</text>
</g>
<!-- pod1&#45;spine1&#45;&#45;pod1&#45;leaf3 -->
<g id="edge3" class="edge">
<title>pod1&#45;spine1&#45;&#45;pod1&#45;leaf3</title>
<path fill="none" stroke="black" d="M249.09,-73.81C230.69,-61.99 205.28,-45.67 186.98,-33.92"/>
</g>
<!-- pod1&#45;leaf4 -->
<g id="node6" class="node">
<title>pod1&#45;leaf4</title>
<ellipse fill="none" stroke="black" cx="278.75" cy="-18" rx="48.99" ry="18"/>
<text text-anchor="middle" x="278.75" y="-14.3" font-family="Times,serif" font-size="14.00">pod1&#45;leaf4</text>
</g>
<!-- pod1&#45;spine1&#45;&#45;pod1&#45;leaf4 -->
<g id="edge4" class="edge">
<title>pod1&#45;spine1&#45;&#45;pod1&#45;leaf4</title>
<path fill="none" stroke="black" d="M274.23,-71.7C275.16,-60.85 276.35,-46.92 277.28,-36.1"/>
</g>
<!-- plane1&#45;superspine1 -->
<g id="node13" class="node">
<title>plane1&#45;superspine1</title>
<ellipse fill="none" stroke="black" cx="539.75" cy="-18" rx="79.09" ry="18"/>
<text text-anchor="middle" x="539.75" y="-14.3" font-family="Times,serif" font-size="14.00">plane1&#45;superspine1</text>
</g>
<!-- pod1&#45;spine1&#45;&#45;plane1&#45;superspine1 -->
<g id="edge5" class="edge">
<title>pod1&#45;spine1&#45;&#45;plane1&#45;superspine1</title>
<path fill="none" stroke="black" d="M313.4,-77.97C320.83,-75.97 328.52,-73.91 335.75,-72 388.1,-58.14 448.1,-42.59 489.41,-31.94"/>
</g>
<!-- plane1&#45;superspine2 -->
<g id="node14" class="node">
<title>plane1&#45;superspine2</title>
<ellipse fill="none" stroke="black" cx="716.75" cy="-18" rx="79.09" ry="18"/>
<text text-anchor="middle" x="716.75" y="-14.3" font-family="Times,serif" font-size="14.00">plane1&#45;superspine2</text>
</g>
<!-- pod1&#45;spine1&#45;&#45;plane1&#45;superspine2 -->
<g id="edge6" class="edge">
<title>pod1&#45;spine1&#45;&#45;plane1&#45;superspine2</title>
<path fill="none" stroke="black" d="M311.87,-77.53C319.73,-75.48 327.96,-73.52 335.75,-72 464.08,-46.9 498.57,-56.28 627.75,-36 638,-34.39 648.89,-32.48 659.39,-30.53"/>
</g>
<!-- pod1&#45;spine2 -->
<g id="node2" class="node">
<title>pod1&#45;spine2</title>
<ellipse fill="none" stroke="black" cx="398.75" cy="-90" rx="53.89" ry="18"/>
<text text-anchor="middle" x="398.75" y="-86.3" font-family="Times,serif" font-size="14.00">pod1&#45;spine2</text>
</g>
<!-- pod1&#45;spine2&#45;&#45;pod1&#45;leaf1 -->
<g id="edge7" class="edge">
<title>pod1&#45;spine2&#45;&#45;pod1&#45;leaf1</title>
<path fill="none" stroke="black" d="M397.51,-71.7C396.73,-60.85 395.74,-46.92 394.97,-36.1"/>
</g>
<!-- pod1&#45;spine2&#45;&#45;pod1&#45;leaf2 -->
<g id="edge8" class="edge">
<title>pod1&#45;spine2&#45;&#45;pod1&#45;leaf2</title>
<path fill="none" stroke="black" d="M359.25,-77.64C351.49,-75.61 343.39,-73.63 335.75,-72 234.54,-50.49 206.66,-58.84 105.75,-36 98.8,-34.43 91.45,-32.47 84.43,-30.44"/>
</g>
<!-- pod1&#45;spine2&#45;&#45;pod1&#45;leaf3 -->
<g id="edge9" class="edge">
<title>pod1&#45;spine2&#45;&#45;pod1&#45;leaf3</title>
<path fill="none" stroke="black" d="M359.85,-77.43C323.79,-66.69 268.64,-50.27 220.75,-36 214.21,-34.05 207.26,-31.98 200.54,-29.98"/>
</g>
<!-- pod1&#45;spine2&#45;&#45;pod1&#45;leaf4 -->
<g id="edge10" class="edge">
<title>pod1&#45;spine2&#45;&#45;pod1&#45;leaf4</title>
<path fill="none" stroke="black" d="M373,-73.98C352.48,-62.01 323.92,-45.35 303.62,-33.51"/>
</g>
<!-- plane2&#45;superspine1 -->
<g id="node15" class="node">
<title>plane2&#45;superspine1</title>
<ellipse fill="none" stroke="black" cx="1070.75" cy="-18" rx="79.09" ry="18"/>
<text text-anchor="middle" x="1070.75" y="-14.3" font-family="Times,serif" font-size="14.00">plane2&#45;superspine1</text>
</g>
<!-- pod1&#45;spine2&#45;&#45;plane2&#45;superspine1 -->
<g id="edge11" class="edge">
<title>pod1&#45;spine2&#45;&#45;plane2&#45;superspine1</title>
<path fill="none" stroke="black" d="M451.6,-85.94C554.18,-79.61 787.25,-63.35 981.75,-36 992.18,-34.53 1003.25,-32.67 1013.91,-30.72"/>
</g>
<!-- plane2&#45;superspine2 -->
<g id="node16" class="node">
<title>plane2&#45;superspine2</title>
<ellipse fill="none" stroke="black" cx="893.75" cy="-18" rx="79.09" ry="18"/>
<text text-anchor="middle" x="893.75" y="-14.3" font-family="Times,serif" font-size="14.00">plane2&#45;superspine2</text>
</g>
<!-- pod1&#45;spine2&#45;&#45;plane2&#45;superspine2 -->
<g id="edge12" class="edge">
<title>pod1&#45;spine2&#45;&#45;plane2&#45;superspine2</title>
<path fill="none" stroke="black" d="M449.2,-83.38C526.11,-74.6 677.19,-56.49 804.75,-36 815,-34.35 825.88,-32.43 836.38,-30.47"/>
</g>
<!-- pod2&#45;spine1 -->
<g id="node7" class="node">
<title>pod2&#45;spine1</title>
<ellipse fill="none" stroke="black" cx="1210.75" cy="-90" rx="53.89" ry="18"/>
<text text-anchor="middle" x="1210.75" y="-86.3" font-family="Times,serif" font-size="14.00">pod2&#45;spine1</text>
</g>
<!-- pod2&#45;leaf1 -->
<g id="node9" class="node">
<title>pod2&#45;leaf1</title>
<ellipse fill="none" stroke="black" cx="1561.75" cy="-18" rx="48.99" ry="18"/>
<text text-anchor="middle" x="1561.75" y="-14.3" font-family="Times,serif" font-size="14.00">pod2&#45;leaf1</text>
</g>
<!-- pod2&#45;spine1&#45;&#45;pod2&#45;leaf1 -->
<g id="edge13" class="edge">
<title>pod2&#45;spine1&#45;&#45;pod2&#45;leaf1</title>
<path fill="none" stroke="black" d="M1250.24,-77.64C1258,-75.61 1266.1,-73.62 1273.75,-72 1375.39,-50.43 1403.39,-58.9 1504.75,-36 1511.7,-34.43 1519.04,-32.47 1526.06,-30.45"/>
</g>
<!-- pod2&#45;leaf2 -->
<g id="node10" class="node">
<title>pod2&#45;leaf2</title>
<ellipse fill="none" stroke="black" cx="1216.75" cy="-18" rx="48.99" ry="18"/>
<text text-anchor="middle" x="1216.75" y="-14.3" font-family="Times,serif" font-size="14.00">pod2&#45;leaf2</text>
</g>
<!-- pod2&#45;spine1&#45;&#45;pod2&#45;leaf2 -->
<g id="edge14" class="edge">
<title>pod2&#45;spine1&#45;&#45;pod2&#45;leaf2</title>
<path fill="none" stroke="black" d="M1212.23,-71.7C1213.16,-60.85 1214.35,-46.92 1215.28,-36.1"/>
</g>
<!-- pod2&#45;leaf3 -->
<g id="node11" class="node">
<title>pod2&#45;leaf3</title>
<ellipse fill="none" stroke="black" cx="1331.75" cy="-18" rx="48.99" ry="18"/>
<text text-anchor="middle" x="1331.75" y="-14.3" font-family="Times,serif" font-size="14.00">pod2&#45;leaf3</text>
</g>
<!-- pod2&#45;spine1&#45;&#45;pod2&#45;leaf3 -->
<g id="edge15" class="edge">
<title>pod2&#45;spine1&#45;&#45;pod2&#45;leaf3</title>
<path fill="none" stroke="black" d="M1236.41,-74.15C1257.08,-62.2 1285.98,-45.47 1306.54,-33.58"/>
</g>
<!-- pod2&#45;leaf4 -->
<g id="node12" class="node">
<title>pod2&#45;leaf4</title>
<ellipse fill="none" stroke="black" cx="1446.75" cy="-18" rx="48.99" ry="18"/>
<text text-anchor="middle" x="1446.75" y="-14.3" font-family="Times,serif" font-size="14.00">pod2&#45;leaf4</text>
</g>
<!-- pod2&#45;spine1&#45;&#45;pod2&#45;leaf4 -->
<g id="edge16" class="edge">
<title>pod2&#45;spine1&#45;&#45;pod2&#45;leaf4</title>
<path fill="none" stroke="black" d="M1249.86,-77.44C1286.13,-66.72 1341.59,-50.31 1389.75,-36 1396.28,-34.06 1403.23,-31.99 1409.95,-29.98"/>
</g>
<!-- pod2&#45;spine1&#45;&#45;plane1&#45;superspine1 -->
<g id="edge17" class="edge">
<title>pod2&#45;spine1&#45;&#45;plane1&#45;superspine1</title>
<path fill="none" stroke="black" d="M1157.98,-85.93C1055.58,-79.59 822.9,-63.32 628.75,-36 618.31,-34.53 607.24,-32.67 596.58,-30.72"/>
</g>
<!-- pod2&#45;spine1&#45;&#45;plane1&#45;superspine2 -->
<g id="edge18" class="edge">
<title>pod2&#45;spine1&#45;&#45;plane1&#45;superspine2</title>
<path fill="none" stroke="black" d="M1160.41,-83.37C1083.7,-74.58 932.99,-56.46 805.75,-36 795.5,-34.35 784.61,-32.42 774.11,-30.47"/>
</g>
<!-- pod2&#45;spine2 -->
<g id="node8" class="node">
<title>pod2&#45;spine2</title>
<ellipse fill="none" stroke="black" cx="1336.75" cy="-90" rx="53.89" ry="18"/>
<text text-anchor="middle" x="1336.75" y="-86.3" font-family="Times,serif" font-size="14.00">pod2&#45;spine2</text>
</g>
<!-- pod2&#45;spine2&#45;&#45;pod2&#45;leaf1 -->
<g id="edge19" class="edge">
<title>pod2&#45;spine2&#45;&#45;pod2&#45;leaf1</title>
<path fill="none" stroke="black" d="M1374.91,-77.13C1417.04,-64.02 1484.34,-43.08 1525.63,-30.24"/>
</g>
<!-- pod2&#45;spine2&#45;&#45;pod2&#45;leaf2 -->
<g id="edge20" class="edge">
<title>pod2&#45;spine2&#45;&#45;pod2&#45;leaf2</title>
<path fill="none" stroke="black" d="M1311,-73.98C1290.48,-62.01 1261.92,-45.35 1241.62,-33.51"/>
</g>
<!-- pod2&#45;spine2&#45;&#45;pod2&#45;leaf3 -->
<g id="edge21" class="edge">
<title>pod2&#45;spine2&#45;&#45;pod2&#45;leaf3</title>
<path fill="none" stroke="black" d="M1335.51,-71.7C1334.73,-60.85 1333.74,-46.92 1332.97,-36.1"/>
</g>
<!-- pod2&#45;spine2&#45;&#45;pod2&#45;leaf4 -->
<g id="edge22" class="edge">
<title>pod2&#45;spine2&#45;&#45;pod2&#45;leaf4</title>
<path fill="none" stroke="black" d="M1360.61,-73.81C1379.19,-61.99 1404.83,-45.67 1423.3,-33.92"/>
</g>
<!-- pod2&#45;spine2&#45;&#45;plane2&#45;superspine1 -->
<g id="edge23" class="edge">
<title>pod2&#45;spine2&#45;&#45;plane2&#45;superspine1</title>
<path fill="none" stroke="black" d="M1296.09,-77.98C1288.66,-75.98 1280.97,-73.92 1273.75,-72 1221.82,-58.22 1162.34,-42.72 1121.25,-32.06"/>
</g>
<!-- pod2&#45;spine2&#45;&#45;plane2&#45;superspine2 -->
<g id="edge24" class="edge">
<title>pod2&#45;spine2&#45;&#45;plane2&#45;superspine2</title>
<path fill="none" stroke="black" d="M1297.63,-77.53C1289.76,-75.48 1281.53,-73.52 1273.75,-72 1145.85,-46.96 1111.48,-56.24 982.75,-36 972.49,-34.39 961.61,-32.48 951.1,-30.53"/>
</g>
</g>
</svg>
